<svg xmlns="http://www.w3.org/2000/svg" width="244" height="103" fill="none"><path fill="#fff" d="M204.757 29.068h17v51.5a8.5 8.5 0 01-17 0v-51.5z"/><rect width="17" height="60" x="183.257" y="29.068" fill="#fff" rx="8.5" transform="rotate(-90 183.257 29.068)"/><path fill="#fff" d="M139.507 20.568a8.5 8.5 0 0117 0v51.5h-17v-51.5zm17 68.5c-9.389 0-17-7.611-17-17h51.5a8.5 8.5 0 010 17h-34.5zm-39.25-68.5a8.5 8.5 0 0117 0v51.5h-17v-51.5zm0 68.5c9.389 0 17-7.611 17-17h-60c0 9.389 7.611 17 17 17h26zm-43-68.5a8.5 8.5 0 1117 0v51.5h-17v-51.5z"/><path fill="#F46119" d="M37.646.304l16.787 41.25H20.86L37.646.304z"/><path fill="#F46119" d="M17.086 29.61l28.085 7.525c15.512 4.156 24.717 20.1 20.56 35.611-4.156 15.511-20.1 24.717-35.61 20.56-15.512-4.156-24.717-20.1-20.56-35.61l7.525-28.086z"/><path fill="#F46119" d="M58.206 29.61l7.525 28.085c4.157 15.511-5.048 31.455-20.56 35.611-15.51 4.157-31.454-5.049-35.61-20.56-4.157-15.511 5.048-31.455 20.56-35.61l28.085-7.526z"/><g filter="url(#filter0_d_1062_1682)"><circle cx="37.646" cy="65.221" r="17.5" fill="#fff"/></g><circle cx="34.542" cy="65.837" r="3.15" fill="#F46119" fill-opacity=".25"/><circle cx="42.325" cy="65.837" r="1.575" fill="#F46119" fill-opacity=".25"/><defs><filter id="filter0_d_1062_1682" width="75" height="75" x=".146" y="27.721" color-interpolation-filters="sRGB" filterUnits="userSpaceOnUse"><feFlood flood-opacity="0" result="BackgroundImageFix"/><feColorMatrix in="SourceAlpha" result="hardAlpha" values="0 0 0 0 0 0 0 0 0 0 0 0 0 0 0 0 0 0 127 0"/><feMorphology in="SourceAlpha" operator="dilate" radius="5" result="effect1_dropShadow_1062_1682"/><feOffset/><feGaussianBlur stdDeviation="7.5"/><feComposite in2="hardAlpha" operator="out"/><feColorMatrix values="0 0 0 0 1 0 0 0 0 1 0 0 0 0 1 0 0 0 0.15 0"/><feBlend in2="BackgroundImageFix" result="effect1_dropShadow_1062_1682"/><feBlend in="SourceGraphic" in2="effect1_dropShadow_1062_1682" result="shape"/></filter></defs></svg>