<?xml version="1.0" encoding="UTF-8"?>
<svg id="katman_1" data-name="katman 1" xmlns="http://www.w3.org/2000/svg" viewBox="0 0 2000 1056.65">
  <defs>
    <style>
      .cls-1 {
        stroke-width: 0px;
      }

      .cls-2 {
        fill: #1d1d1b;
        font-family: Poppins-Thin, Poppins;
        font-size: 245.87px;
        font-weight: 200;
      }
    </style>
  </defs>
  <polygon class="cls-1" points="88.35 90.83 228.84 90.83 88.35 312.1 88.35 90.83"/>
  <polygon class="cls-1" points="420.25 90.83 622.2 90.83 283.28 628.2 88.35 628.2 420.25 90.83"/>
  <polygon class="cls-1" points="622.2 403.42 622.2 628.2 476.45 628.2 622.2 403.42"/>
  <path class="cls-1" d="m982.66,628.2s-251.39-10.54-251.39-288c0-216,216.55-249.14,251.39-249.14,0,0-84.57,12.07-84.57,96.36v328.39s-3.51,78.86,84.57,112.39Z"/>
  <path class="cls-1" d="m1007.04,91.06s93,6.8,93,110.41v152.99h-124.68v5.06h289.75s12.37-268.46-258.07-268.46Z"/>
  <path class="cls-1" d="m1747.57,471.92l-258.77,409.26s-5.01,7.42-5.08,7.57c0,0-15.85,23.05-26.24,33.29-.07.11-.15.15-.22.22-14.94,14.68-33.97,25.18-55.28,29.58-.26.07-.48.11-.75.11-7.08,1.45-14.38,2.2-21.87,2.2-29.06,0-55.47-11.18-75.29-29.43-.07-.04-.15-.11-.22-.19-21.87-20.3-35.54-49.29-35.54-81.44,0-61.36,49.73-111.09,111.05-111.09s110.12,48.76,111.05,109.3c.04.6.04,1.19.04,1.79,0,3.91-.19,7.75-.6,11.55,0,.11-.04.26-.04.41-.11,1.12-.26,2.27-.45,3.39-.04.22-.07.41-.07.63.04.07,0,.15,0,.22l152.92-245.16L1308.58,90.82h200.16l238.83,381.1Z"/>
  <circle class="cls-1" cx="1800.59" cy="202.12" r="111.06"/>
  <text class="cls-2" transform="translate(88.35 941.86)"><tspan x="0" y="0">digital art</tspan></text>
</svg>