<?xml version="1.0" encoding="UTF-8"?>
<svg id="katman_1" data-name="katman 1" xmlns="http://www.w3.org/2000/svg" viewBox="0 0 2000 2000">
  <defs>
    <style>
      .cls-1 {
        fill: #453b56;
        stroke-width: 0px;
      }
    </style>
  </defs>
  <path class="cls-1" d="m965.97,129.81h75.65v117.95h-202.98l-113.77,105.43,316.9,225.76v144.75l-405.66-288.9-313.33,288.91v-160.84l215.04-198.36,88.76-81.61,38.12-35.15h-342.07v-117.94h643.34Z"/>
  <path class="cls-1" d="m322.63,1207.37l133.43-63.74v-304.99l-133.43-64.33v-131.65l105.44,51.23,28,13.7,117.95,57.19,331.8,160.83,135.82,65.53-135.82,64.93-331.8,160.83-117.95,57.78-28,13.11-105.44,51.23v-131.65h0Zm251.38-312.14v191.21l197.17-95.31-197.17-95.9Z"/>
  <path class="cls-1" d="m792.63,1870.22h-470v-117.94h341.92l-38.12-35.15-88.61-81.61-215.04-198.36v-160.83l313.33,288.91,405.66-288.91v144.72l-316.9,225.76,113.78,105.44h203.13v117.95h-249l-.15.02Z"/>
  <path class="cls-1" d="m1084.06,1058.99v-117.95h593.27v117.95h-593.27Z"/>
  <rect class="cls-1" x="1084.06" y="1744.52" width="117.32" height="125.69"/>
  <path class="cls-1" d="m1467.65,1601.55l209.68,268.65h-150.11l-208.49-268.06h-117.35v142.37h-117.32v-260.31h368.13c42.56-.28,80.96-25.58,98.02-64.57,23.69-54.49-1.28-117.86-55.77-141.55-13.34-5.8-27.71-8.83-42.25-8.92h-197.97l-45.54,32.61-6.67,4.68v-.18.3l-.6.42-67.19,48.16-50.13,35.74v-144.93l46.17-33.06,71.75-51.41,14.33-10.28h235.86c123.9,0,225.17,101.86,225.17,225.17-.04,118.55-92.96,216.24-209.72,225.17Z"/>
  <path class="cls-1" d="m1656.48,547.94c-10.86-21.94-25.37-41.88-42.89-58.97-4.17-4.17-8.94-7.74-13.1-11.32,12.28-14.65,22.87-30.63,31.57-47.65,13.48-28.48,20.4-59.63,20.25-91.14,0-114.97-93.52-209.08-208.49-209.08h-359.76v418.17h384.78c50.04,0,90.54,41.7,90.54,91.74-.14,50.04-40.5,90.67-90.54,91.14h-214.86l-51.97-37.25-117.92-84.44v145.08l132,94.53h252.78c114.37,0,208.49-94.71,208.49-209.08.23-31.78-6.92-63.18-20.88-91.73Zm-212.65-117.95h-241.82v-182.27h241.85c50.33,0,91.14,40.8,91.14,91.14s-40.8,91.14-91.14,91.14h-.03Z"/>
</svg>